<svg width="80" height="80" viewBox="0 0 80 80" fill="none" xmlns="http://www.w3.org/2000/svg">
<path d="M8 8V72H72V8H8ZM9.56098 57.1707C11.6285 58.6106 14.0674 59.4236 16.5854 59.5122C18.3906 59.4796 20.1651 59.0392 21.7761 58.2239C20.9606 59.8348 20.5202 61.6093 20.4878 63.4146C20.5762 65.9326 21.3892 68.3716 22.8293 70.439H17.8529C17.666 68.3026 16.7324 66.3004 15.216 64.784C13.6996 63.2676 11.6974 62.334 9.56098 62.1471V57.1707ZM40 54.3381C38.5854 52.4426 37.77 50.1674 37.6585 47.8049C37.7728 45.4429 38.5879 43.1685 40 41.2717C41.4146 43.1671 42.23 45.4424 42.3415 47.8049C42.2272 50.1668 41.4121 52.4412 40 54.3381ZM40 38.7283C38.5854 36.8329 37.77 34.5576 37.6585 32.1951C37.7728 29.8332 38.5879 27.5587 40 25.6619C41.4146 27.5574 42.23 29.8326 42.3415 32.1951C42.2272 34.5571 41.4121 36.8315 40 38.7283ZM37.3869 37.3859C35.7756 36.5704 34.0007 36.13 32.1951 36.0976C30.3899 36.1301 28.6153 36.5706 27.0044 37.3859C27.8199 35.775 28.2603 34.0004 28.2927 32.1951C28.2603 30.3898 27.8199 28.6153 27.0044 27.0044C28.6153 27.8197 30.3899 28.2601 32.1951 28.2927C34.0004 28.2601 35.7749 27.8197 37.3859 27.0044C36.5704 28.6153 36.1299 30.3898 36.0976 32.1951C36.1299 34.0004 36.5714 35.775 37.3869 37.3859ZM38.7283 40C36.8325 41.414 34.5575 42.2293 32.1951 42.3415C29.8332 42.2268 27.559 41.4117 25.6619 40C27.5577 38.586 29.8327 37.7707 32.1951 37.6585C34.557 37.7732 36.8313 38.5883 38.7283 40ZM32.1951 43.9024C34.0004 43.8699 35.7749 43.4294 37.3859 42.6141C36.5704 44.225 36.1299 45.9996 36.0976 47.8049C36.1299 49.6102 36.5704 51.3847 37.3859 52.9956C35.7749 52.1803 34.0004 51.7399 32.1951 51.7073C30.3899 51.7399 28.6153 52.1803 27.0044 52.9956C27.8199 51.3847 28.2603 49.6102 28.2927 47.8049C28.2603 45.9996 27.8199 44.225 27.0044 42.6141C28.6153 43.4294 30.3899 43.8699 32.1951 43.9024ZM42.6141 42.6141C44.2251 43.4294 45.9996 43.8699 47.8049 43.9024C49.6101 43.8699 51.3847 43.4294 52.9956 42.6141C52.1801 44.225 51.7397 45.9996 51.7073 47.8049C51.7397 49.6102 52.1801 51.3847 52.9956 52.9956C51.3847 52.1803 49.6101 51.7399 47.8049 51.7073C45.9996 51.7399 44.2251 52.1803 42.6141 52.9956C43.4296 51.3847 43.8701 49.6102 43.9024 47.8049C43.8701 45.9996 43.4296 44.225 42.6141 42.6141ZM41.2717 40C43.1675 38.586 45.4425 37.7707 47.8049 37.6585C50.1667 37.7732 52.441 38.5883 54.3381 40C52.4423 41.414 50.1673 42.2293 47.8049 42.3415C45.443 42.2268 43.1687 41.4117 41.2717 40ZM47.8049 36.0976C45.9996 36.1301 44.2251 36.5706 42.6141 37.3859C43.4296 35.775 43.8701 34.0004 43.9024 32.1951C43.8701 30.3898 43.4296 28.6153 42.6141 27.0044C44.2251 27.8197 45.9996 28.2601 47.8049 28.2927C49.6101 28.2601 51.3847 27.8197 52.9956 27.0044C52.1801 28.6153 51.7397 30.3898 51.7073 32.1951C51.7397 34.0004 52.1801 35.775 52.9956 37.3859C51.3847 36.5706 49.6101 36.1301 47.8049 36.0976ZM47.8049 26.7317C45.443 26.617 43.1687 25.8019 41.2717 24.3902C43.1675 22.9763 45.4425 22.1609 47.8049 22.0488C50.1667 22.1635 52.441 22.9786 54.3381 24.3902C52.4423 25.8042 50.1673 26.6196 47.8049 26.7317ZM40 23.1186C38.5854 21.2231 37.77 18.9479 37.6585 16.5854C37.7728 14.2234 38.5879 11.949 40 10.0522C41.4146 11.9476 42.23 14.2228 42.3415 16.5854C42.2272 18.9473 41.4121 21.2217 40 23.1186ZM32.1951 26.7317C29.8332 26.617 27.559 25.8019 25.6619 24.3902C27.5577 22.9763 29.8327 22.1609 32.1951 22.0488C34.557 22.1635 36.8313 22.9786 38.7283 24.3902C36.8325 25.8042 34.5575 26.6196 32.1951 26.7317ZM24.3902 23.1186C22.9756 21.2231 22.1602 18.9479 22.0488 16.5854C22.163 14.2234 22.9782 11.949 24.3902 10.0522C25.8049 11.9476 26.6203 14.2228 26.7317 16.5854C26.6175 18.9473 25.8023 21.2217 24.3902 23.1186ZM24.3902 25.6619C25.8049 27.5574 26.6203 29.8326 26.7317 32.1951C26.6175 34.5571 25.8023 36.8315 24.3902 38.7283C22.9756 36.8329 22.1602 34.5576 22.0488 32.1951C22.163 29.8332 22.9782 27.5587 24.3902 25.6619ZM24.3902 41.2717C25.8049 43.1671 26.6203 45.4424 26.7317 47.8049C26.6175 50.1668 25.8023 52.4412 24.3902 54.3381C22.9756 52.4426 22.1602 50.1674 22.0488 47.8049C22.163 45.4429 22.9782 43.1685 24.3902 41.2717ZM24.3902 56.8814C25.8049 58.7769 26.6203 61.0521 26.7317 63.4146C26.6175 65.7766 25.8023 68.051 24.3902 69.9478C22.9756 68.0524 22.1602 65.7772 22.0488 63.4146C22.163 61.0527 22.9782 58.7783 24.3902 56.8814ZM32.1951 53.2683C34.557 53.383 36.8313 54.1981 38.7283 55.6098C36.8325 57.0237 34.5575 57.8391 32.1951 57.9512C29.8332 57.8365 27.559 57.0214 25.6619 55.6098C27.5577 54.1958 29.8327 53.3804 32.1951 53.2683ZM40 56.8814C41.4146 58.7769 42.23 61.0521 42.3415 63.4146C42.2272 65.7766 41.4121 68.051 40 69.9478C38.5854 68.0524 37.77 65.7772 37.6585 63.4146C37.7728 61.0527 38.5879 58.7783 40 56.8814ZM47.8049 53.2683C50.1667 53.383 52.441 54.1981 54.3381 55.6098C52.4423 57.0237 50.1673 57.8391 47.8049 57.9512C45.443 57.8365 43.1687 57.0214 41.2717 55.6098C43.1675 54.1958 45.4425 53.3804 47.8049 53.2683ZM55.6098 56.8814C57.0244 58.7769 57.8398 61.0521 57.9512 63.4146C57.837 65.7766 57.0218 68.051 55.6098 69.9478C54.1951 68.0524 53.3797 65.7772 53.2683 63.4146C53.3825 61.0527 54.1977 58.7783 55.6098 56.8814ZM55.6098 54.3381C54.1951 52.4426 53.3797 50.1674 53.2683 47.8049C53.3825 45.4429 54.1977 43.1685 55.6098 41.2717C57.0244 43.1671 57.8398 45.4424 57.9512 47.8049C57.837 50.1668 57.0218 52.4412 55.6098 54.3381ZM55.6098 38.7283C54.1951 36.8329 53.3797 34.5576 53.2683 32.1951C53.3825 29.8332 54.1977 27.5587 55.6098 25.6619C57.0244 27.5574 57.8398 29.8326 57.9512 32.1951C57.837 34.5571 57.0218 36.8315 55.6098 38.7283ZM55.6098 23.1186C54.1951 21.2231 53.3797 18.9479 53.2683 16.5854C53.3825 14.2234 54.1977 11.949 55.6098 10.0522C57.0244 11.9476 57.8398 14.2228 57.9512 16.5854C57.837 18.9473 57.0218 21.2217 55.6098 23.1186ZM51.7073 16.5854C51.7397 18.3907 52.1801 20.1652 52.9956 21.7761C51.3847 20.9608 49.6101 20.5204 47.8049 20.4878C45.9996 20.5204 44.2251 20.9608 42.6141 21.7761C43.4296 20.1652 43.8701 18.3907 43.9024 16.5854C43.814 14.0674 43.001 11.6284 41.561 9.56098H54.0488C52.6087 11.6284 51.7957 14.0674 51.7073 16.5854ZM36.0976 16.5854C36.1299 18.3907 36.5704 20.1652 37.3859 21.7761C35.7749 20.9608 34.0004 20.5204 32.1951 20.4878C30.3899 20.5204 28.6153 20.9608 27.0044 21.7761C27.8199 20.1652 28.2603 18.3907 28.2927 16.5854C28.2043 14.0674 27.3913 11.6284 25.9512 9.56098H38.439C36.999 11.6284 36.186 14.0674 36.0976 16.5854ZM20.4878 16.5854C20.5202 18.3907 20.9606 20.1652 21.7761 21.7761C20.1651 20.9608 18.3906 20.5204 16.5854 20.4878C14.0674 20.5764 11.6285 21.3894 9.56098 22.8293V17.8529C11.6974 17.666 13.6996 16.7324 15.216 15.216C16.7324 13.6996 17.666 11.6974 17.8529 9.56098H22.8293C21.3892 11.6284 20.5762 14.0674 20.4878 16.5854ZM23.1186 24.3902C21.2228 25.8042 18.9477 26.6196 16.5854 26.7317C14.2235 26.617 11.9492 25.8019 10.0522 24.3902C11.948 22.9763 14.223 22.1609 16.5854 22.0488C18.9472 22.1635 21.2215 22.9786 23.1186 24.3902ZM16.5854 28.2927C18.3906 28.2601 20.1651 27.8197 21.7761 27.0044C20.9606 28.6153 20.5202 30.3898 20.4878 32.1951C20.5202 34.0004 20.9606 35.775 21.7761 37.3859C20.1651 36.5706 18.3906 36.1301 16.5854 36.0976C14.0674 36.1861 11.6285 36.9991 9.56098 38.439V25.9512C11.6285 27.3911 14.0674 28.2041 16.5854 28.2927ZM23.1186 40C21.2228 41.414 18.9477 42.2293 16.5854 42.3415C14.2235 42.2268 11.9492 41.4117 10.0522 40C11.948 38.586 14.223 37.7707 16.5854 37.6585C18.9472 37.7732 21.2215 38.5883 23.1186 40ZM16.5854 43.9024C18.3906 43.8699 20.1651 43.4294 21.7761 42.6141C20.9606 44.225 20.5202 45.9996 20.4878 47.8049C20.5202 49.6102 20.9606 51.3847 21.7761 52.9956C20.1651 52.1803 18.3906 51.7399 16.5854 51.7073C14.0674 51.7959 11.6285 52.6089 9.56098 54.0488V41.561C11.6285 43.0009 14.0674 43.8139 16.5854 43.9024ZM23.1186 55.6098C21.2228 57.0237 18.9477 57.8391 16.5854 57.9512C14.2235 57.8365 11.9492 57.0214 10.0522 55.6098C11.948 54.1958 14.223 53.3804 16.5854 53.2683C18.9472 53.383 21.2215 54.1981 23.1186 55.6098ZM28.2927 63.4146C28.2603 61.6093 27.8199 59.8348 27.0044 58.2239C28.6153 59.0392 30.3899 59.4796 32.1951 59.5122C34.0004 59.4796 35.7749 59.0392 37.3859 58.2239C36.5704 59.8348 36.1299 61.6093 36.0976 63.4146C36.186 65.9326 36.999 68.3716 38.439 70.439H25.9512C27.3913 68.3716 28.2043 65.9326 28.2927 63.4146ZM43.9024 63.4146C43.8701 61.6093 43.4296 59.8348 42.6141 58.2239C44.2251 59.0392 45.9996 59.4796 47.8049 59.5122C49.6101 59.4796 51.3847 59.0392 52.9956 58.2239C52.1801 59.8348 51.7397 61.6093 51.7073 63.4146C51.7957 65.9326 52.6087 68.3716 54.0488 70.439H41.561C43.001 68.3716 43.814 65.9326 43.9024 63.4146ZM59.5122 63.4146C59.4798 61.6093 59.0394 59.8348 58.2239 58.2239C59.8349 59.0392 61.6094 59.4796 63.4146 59.5122C65.9326 59.4236 68.3715 58.6106 70.439 57.1707V62.1461C68.3026 62.3329 66.3004 63.2665 64.784 64.783C63.2676 66.2994 62.334 68.3016 62.1471 70.438H57.1707C58.6106 68.3709 59.4236 65.9322 59.5122 63.4146ZM56.8814 55.6098C58.7772 54.1958 61.0522 53.3804 63.4146 53.2683C65.7765 53.383 68.0508 54.1981 69.9478 55.6098C68.052 57.0237 65.777 57.8391 63.4146 57.9512C61.0528 57.8365 58.7785 57.0214 56.8814 55.6098ZM63.4146 51.7073C61.6094 51.7399 59.8349 52.1803 58.2239 52.9956C59.0394 51.3847 59.4798 49.6102 59.5122 47.8049C59.4798 45.9996 59.0394 44.225 58.2239 42.6141C59.8349 43.4294 61.6094 43.8699 63.4146 43.9024C65.9326 43.8139 68.3715 43.0009 70.439 41.561V54.0488C68.3715 52.6089 65.9326 51.7959 63.4146 51.7073ZM56.8814 40C58.7772 38.586 61.0522 37.7707 63.4146 37.6585C65.7765 37.7732 68.0508 38.5883 69.9478 40C68.052 41.414 65.777 42.2293 63.4146 42.3415C61.0528 42.2268 58.7785 41.4117 56.8814 40ZM63.4146 36.0976C61.6094 36.1301 59.8349 36.5706 58.2239 37.3859C59.0394 35.775 59.4798 34.0004 59.5122 32.1951C59.4798 30.3898 59.0394 28.6153 58.2239 27.0044C59.8349 27.8197 61.6094 28.2601 63.4146 28.2927C65.9326 28.2041 68.3715 27.3911 70.439 25.9512V38.439C68.3715 36.9991 65.9326 36.1861 63.4146 36.0976ZM56.8814 24.3902C58.7772 22.9763 61.0522 22.1609 63.4146 22.0488C65.7765 22.1635 68.0508 22.9786 69.9478 24.3902C68.052 25.8042 65.777 26.6196 63.4146 26.7317C61.0528 26.617 58.7785 25.8019 56.8814 24.3902ZM63.4146 20.4878C61.6094 20.5204 59.8349 20.9608 58.2239 21.7761C59.0394 20.1652 59.4798 18.3907 59.5122 16.5854C59.4238 14.0674 58.6108 11.6284 57.1707 9.56098H62.1461C62.3329 11.6974 63.2665 13.6996 64.783 15.216C66.2994 16.7324 68.3016 17.666 70.438 17.8529V22.8293C68.3708 21.3895 65.9322 20.5766 63.4146 20.4878ZM70.439 16.2846C68.7179 16.1031 67.1112 15.3363 65.8874 14.1126C64.6637 12.8888 63.8969 11.2821 63.7154 9.56098H70.439V16.2846ZM16.2846 9.56098C16.1031 11.2821 15.3363 12.8888 14.1126 14.1126C12.8888 15.3363 11.2821 16.1031 9.56098 16.2846V9.56098H16.2846ZM9.56098 63.7154C11.2821 63.8969 12.8888 64.6637 14.1126 65.8874C15.3363 67.1112 16.1031 68.7179 16.2846 70.439H9.56098V63.7154ZM63.7154 70.439C63.8969 68.7179 64.6637 67.1112 65.8874 65.8874C67.1112 64.6637 68.7179 63.8969 70.439 63.7154V70.439H63.7154Z" fill="#D5B471"/>
</svg>
