<svg width="80" height="80" viewBox="0 0 80 80" fill="none" xmlns="http://www.w3.org/2000/svg">
<path d="M48.9213 15.1235C48.3838 14.7085 47.7175 14.4523 46.9875 14.4523H33.0675C32.3363 14.4523 31.67 14.7098 31.1325 15.126C30.5938 14.7098 29.9288 14.4523 29.1975 14.4523H15.2775C13.5213 14.4523 12.0913 15.8823 12.0913 17.6385V31.5585C12.0913 32.2898 12.3488 32.956 12.765 33.4935C12.3488 34.0323 12.0913 34.6985 12.0913 35.4298V49.3498C12.0913 50.0798 12.3475 50.746 12.7625 51.2835C12.345 51.8235 12.0875 52.491 12.0875 53.2235V58.4235L9.31877 63.4798L3.98252 66.401C3.58127 66.6198 3.33252 67.041 3.33252 67.4973C3.33252 67.9535 3.58127 68.3748 3.98252 68.5935L9.31877 71.5148L12.2413 76.8535C12.46 77.2535 12.8813 77.5035 13.3375 77.5035C13.7938 77.5035 14.215 77.2548 14.4338 76.8535L17.355 71.516L19.525 70.331H29.1938C29.9263 70.331 30.5938 70.0723 31.1338 69.656C31.6713 70.071 32.3375 70.3273 33.0675 70.3273H46.9875C47.7188 70.3273 48.385 70.0698 48.9238 69.6535C49.4625 70.0698 50.1288 70.3273 50.86 70.3273H64.78C66.5363 70.3273 67.965 68.8973 67.965 67.141V53.221C67.965 52.4898 67.7075 51.8235 67.2913 51.286C67.7075 50.7473 67.965 50.081 67.965 49.3498V35.4298C67.965 34.6998 67.7088 34.0335 67.2938 33.496C67.7113 32.9573 67.9688 32.2885 67.9688 31.556V21.4823L70.6813 16.5235L76.0188 13.6023C76.42 13.3835 76.6688 12.9623 76.6688 12.506C76.6688 12.0498 76.42 11.6285 76.0188 11.4098L70.6813 8.48852L67.76 3.14977C67.3213 2.34852 66.0063 2.34852 65.5675 3.14977L62.6463 8.48852L57.31 11.4098C56.9088 11.6285 56.66 12.0498 56.66 12.506C56.66 12.9623 56.9088 13.3835 57.31 13.6023L58.8575 14.4498H50.8625C50.13 14.4498 49.4625 14.7085 48.9225 15.1248L48.9213 15.1235ZM50.8613 16.9485H62.88L64.61 20.1098L65.4688 21.6785V31.5548C65.4688 31.931 65.165 32.236 64.79 32.2435C64.7863 32.2435 64.7825 32.2435 64.7788 32.2435H50.8588C50.8588 32.2435 50.8513 32.2435 50.8475 32.2435C50.4763 32.236 50.1775 31.9373 50.1713 31.566C50.1713 31.5635 50.1713 31.561 50.1713 31.5573V17.6373C50.1713 17.6373 50.1713 17.631 50.1713 17.6285C50.1775 17.2523 50.4838 16.9485 50.8613 16.9485ZM65.465 35.4285V49.3485C65.465 49.7273 65.1575 50.0348 64.78 50.0348H50.86C50.4813 50.0348 50.1738 49.7273 50.1738 49.3485V35.4285C50.1738 35.0548 50.475 34.751 50.8488 34.7448C50.8538 34.7448 50.8575 34.746 50.8625 34.746H64.7788C64.7788 34.746 64.7875 34.7448 64.7925 34.7448C65.165 34.751 65.465 35.0535 65.465 35.4285ZM29.195 50.031H15.2788C15.2788 50.031 15.27 50.0323 15.2663 50.0323C14.8938 50.026 14.5925 49.7235 14.5925 49.3485V35.4285C14.5925 35.0498 14.9 34.7423 15.2788 34.7423H29.1988C29.5763 34.7423 29.8838 35.0498 29.8838 35.4285V49.3485C29.8838 49.7235 29.5825 50.026 29.21 50.0323C29.205 50.0323 29.2 50.031 29.195 50.031ZM32.3825 49.3485V35.4285C32.3825 35.0498 32.69 34.7423 33.0675 34.7423H46.9875C47.365 34.7423 47.6725 35.0498 47.6725 35.4285V49.3485C47.6725 49.7273 47.365 50.0348 46.9875 50.0348H33.0675C32.69 50.0348 32.3825 49.7273 32.3825 49.3485ZM33.0675 16.9523H46.9875C47.3613 16.9523 47.665 17.2548 47.6713 17.6285V17.6398V31.556C47.6713 31.556 47.6713 31.5635 47.6713 31.5673C47.6663 31.9398 47.3625 32.2423 46.9875 32.2423H33.0675C32.69 32.2423 32.3825 31.9348 32.3825 31.5573V17.6373C32.3825 17.2585 32.69 16.951 33.0675 16.951V16.9523ZM14.5913 17.6385C14.5913 17.2598 14.8988 16.9523 15.2775 16.9523H29.1975C29.575 16.9523 29.8825 17.2598 29.8825 17.6385V31.5585C29.8825 31.936 29.575 32.2435 29.1975 32.2435H15.2775C14.8988 32.2435 14.5913 31.936 14.5913 31.5585V17.6385ZM15.835 69.496C15.6263 69.611 15.4525 69.7823 15.3388 69.991L13.3388 73.646L11.3375 69.991C11.2238 69.7823 11.0513 69.6098 10.8413 69.496L7.18752 67.4948L10.8413 65.4935C11.05 65.3785 11.2225 65.2073 11.3375 64.9985L13.3388 61.3435L15.34 64.9985C15.455 65.2085 15.6275 65.381 15.8363 65.4948L19.4975 67.4935L18.605 67.981C18.605 67.981 18.6025 67.9835 18.6 67.9848L15.835 69.496ZM29.195 67.8285H23.3113C23.34 67.721 23.3563 67.6098 23.3563 67.4948C23.3563 67.0385 23.1063 66.6173 22.705 66.3973L17.355 63.476L14.5875 58.421V53.221C14.5875 52.8448 14.8913 52.5398 15.2663 52.5323H15.2775H29.1975C29.1975 52.5323 29.2038 52.5323 29.2075 52.5323C29.5788 52.5398 29.8775 52.8385 29.8838 53.2098V53.2185V67.1385C29.8838 67.1385 29.8838 67.1448 29.8838 67.1473C29.8775 67.5235 29.5725 67.8285 29.195 67.8285ZM46.9875 67.8248H33.0675C32.6938 67.8248 32.39 67.5223 32.3838 67.1485C32.3838 67.1448 32.3838 67.141 32.3838 67.1373V53.221C32.3838 53.221 32.3838 53.2135 32.3838 53.2098C32.3888 52.8373 32.6925 52.5348 33.0675 52.5348H46.9875C47.365 52.5348 47.6725 52.8423 47.6725 53.2198V67.1398C47.6725 67.5185 47.365 67.826 46.9875 67.826V67.8248ZM65.4638 67.1385C65.4638 67.5173 65.1563 67.8248 64.7788 67.8248H50.8588C50.48 67.8248 50.1725 67.5173 50.1725 67.1385V53.2185C50.1725 52.841 50.48 52.5335 50.8588 52.5335H64.7788C65.1563 52.5335 65.4638 52.841 65.4638 53.2185V67.1385ZM64.165 10.5035C64.375 10.3885 64.5475 10.2173 64.6613 10.0085L66.6625 6.35352L68.6638 10.0085C68.7775 10.2173 68.95 10.3898 69.16 10.5035L72.815 12.5048L69.16 14.506C68.95 14.621 68.7775 14.7923 68.6638 15.0023L66.6638 18.6548L64.7175 15.0985C64.7138 15.091 64.655 14.9885 64.6525 14.9823C64.5375 14.781 64.3688 14.616 64.1663 14.5048L60.5125 12.5035L64.1663 10.5023L64.165 10.5035Z" fill="#D5B471"/>
</svg>
