<svg width="80" height="80" viewBox="0 0 80 80" fill="none" xmlns="http://www.w3.org/2000/svg">
<path d="M72 11C71.9991 10.2046 71.6828 9.44206 71.1204 8.87964C70.5579 8.31722 69.7954 8.00087 69 8H11C10.2046 8.00087 9.44206 8.31722 8.87964 8.87964C8.31722 9.44206 8.00087 10.2046 8 11V69C8.00087 69.7954 8.31722 70.5579 8.87964 71.1204C9.44206 71.6828 10.2046 71.9991 11 72H69C69.7954 71.9991 70.5579 71.6828 71.1204 71.1204C71.6828 70.5579 71.9991 69.7954 72 69V11ZM54.3673 70H36.4458C38.2337 68.5626 40.1427 67.2828 42.1514 66.1748C47.2759 63.252 51.8193 61.4224 56.0415 60.582L57.9644 60.2021C61.9237 59.423 66.0097 58.6147 70 57.4391V62.4631C66.9967 62.4713 64.0334 63.1526 61.328 64.4569C58.6227 65.7612 56.2441 67.6553 54.3673 70ZM27.4865 70C28.8931 68.299 31.8164 65.3287 37.1387 62.0762C37.2507 62.0077 37.3482 61.9178 37.4256 61.8116C37.5029 61.7055 37.5586 61.5851 37.5894 61.4574C37.6203 61.3298 37.6257 61.1973 37.6053 61.0675C37.5849 60.9377 37.5392 60.8133 37.4707 60.7012C37.4022 60.5891 37.3123 60.4916 37.2062 60.4142C37.1 60.3369 36.9796 60.2812 36.852 60.2504C36.7243 60.2196 36.5918 60.2142 36.462 60.2345C36.3323 60.2549 36.2078 60.3007 36.0957 60.3691C28.9843 64.7155 25.9088 68.6326 24.9767 70H18.741C27.8256 58.397 44.3426 51.5721 45.1079 51.2612C47.3682 50.5122 48.8936 48.9556 49.1914 47.0918C49.3532 46.1415 49.1705 45.1646 48.6763 44.337C48.182 43.5093 47.4085 42.8853 46.4951 42.5771C45.2941 42.2227 44.0391 42.087 42.79 42.1763C42.05 42.2085 41.3086 42.178 40.5737 42.085C35.8511 41.3213 29.7715 43.4375 29.0986 43.6792C22.7539 45.2283 16.0861 44.7882 10 42.4185V29.9113C11.0985 30.0353 12.2031 30.097 13.3086 30.0962C18.4878 30.0121 23.5999 28.9103 28.354 26.8535C28.7861 26.6733 29.2243 26.4892 29.6685 26.3013C34.0503 24.4507 39.0156 22.353 43.6558 23.1353C45.2929 23.4888 46.8824 24.0349 48.3911 24.7622C51.2192 25.9805 54.1436 27.2422 57.4458 26.4043C61.9653 25.2603 65.668 21.6382 68.9351 18.4429C69.2974 18.0885 69.6504 17.7445 70 17.4066V21.8003C69.5966 22.3722 68.1915 24.1298 64.9785 26.0928C64.7523 26.2312 64.5902 26.4537 64.528 26.7115C64.4657 26.9693 64.5083 27.2413 64.6465 27.4677C64.7882 27.6901 65.0106 27.849 65.267 27.9109C65.5234 27.9728 65.7938 27.933 66.0215 27.7998C67.4509 26.9435 68.7847 25.9368 70 24.7968V31.9741C67.6626 33.5849 65.3402 35.1704 63.0908 36.6899C62.4438 37.1269 61.6123 37.605 60.7314 38.1113C57.521 39.9556 53.5254 42.2515 53.0581 45.604C52.9354 46.3811 52.9884 47.1759 53.2131 47.9298C53.4379 48.6838 53.8287 49.3778 54.3569 49.9609C55.7646 51.5391 58.2261 52.5 60.8286 52.5C60.9136 52.5 60.9995 52.499 61.0854 52.4966C64.2199 52.4125 67.2838 51.5481 70 49.9815V55.3557C65.9105 56.5252 61.7646 57.4878 57.5781 58.2397L55.6509 58.6201C51.2144 59.5039 46.4746 61.4067 41.1602 64.4375C38.3693 65.9463 35.7895 67.8166 33.4877 70H27.4865ZM10 53.8263C16.5487 54.8701 25.765 51.9028 29.5937 50.5088C29.6735 50.4947 29.7557 50.5061 29.8286 50.5413C29.9015 50.5766 29.9615 50.6338 30 50.7051C30.0315 50.7771 30.0371 50.8578 30.0156 50.9335C29.9941 51.0091 29.947 51.0749 29.8823 51.1196C28.8103 51.6113 17.1499 57.0368 10 63.2797V53.8263ZM70 42.4232C69.0053 42.7639 67.956 43.1609 66.9395 43.5464C66.5283 43.7022 66.1226 43.856 65.7393 44C65.6931 43.9952 65.649 43.9788 65.6109 43.9523C65.5728 43.9259 65.5421 43.8902 65.5215 43.8486C65.4497 43.7119 65.5913 43.5117 65.6821 43.4048C66.5154 42.422 68.0306 41.3611 70 40.3697V42.4232ZM70 38.1487C68.1045 39.0275 65.6001 40.4096 64.1567 42.1108C63.7837 42.492 63.5544 42.9906 63.5077 43.5218C63.4611 44.0531 63.6 44.5841 63.9009 45.0244C64.1081 45.3213 64.3831 45.5645 64.703 45.734C65.023 45.9035 65.3787 45.9943 65.7407 45.999C66.4056 45.9177 67.0511 45.7205 67.6479 45.4165C68.4313 45.1195 69.2259 44.8237 70 44.5474V47.5798C67.3596 49.4036 64.2446 50.4176 61.0366 50.4976C58.9053 50.5371 56.9238 49.8335 55.8496 48.6294C55.5151 48.2624 55.2682 47.8243 55.1277 47.348C54.9872 46.8717 54.9567 46.3697 55.0386 45.8799C55.3706 43.4976 58.8955 41.4727 61.7276 39.8452C62.6411 39.3208 63.5034 38.8252 64.2109 38.3472C66.1005 37.0706 68.0418 35.7473 70 34.4021L70 38.1487ZM70 11V14.6629C69.1897 15.404 68.3838 16.1841 67.5366 17.0132C64.2993 20.1792 60.9521 23.4536 56.9551 24.4658C54.3105 25.1348 51.8198 24.0615 49.1821 22.9253C47.5271 22.1329 45.7833 21.5412 43.9878 21.1626C38.7749 20.2856 33.5239 22.502 28.8906 24.4585C28.4502 24.6445 28.0152 24.8273 27.5854 25.0068C21.4359 27.5646 15.3781 28.5541 10 27.8951V21.3358C20.242 20.1803 27.0491 11.9958 28.5672 10H31.5065C31.1879 10.9035 31.0176 11.8526 31.0024 12.8105C30.9429 15.23 32.0434 16.4707 32.9766 17.0854C34.4888 18.0815 36.7241 18.1479 38.6714 17.2534C40.7539 16.2978 43.6826 16.6812 46.0015 17.1216C47.023 17.3154 48.0679 17.582 49.0786 17.8398C50.9104 18.3657 52.7869 18.7214 54.6841 18.9023C55.3608 18.9473 56.1475 18.9995 56.9687 18.9995C58.7202 18.9995 60.6299 18.7617 61.9624 17.7075C62.345 17.4401 62.6421 17.0676 62.8178 16.6351C62.9935 16.2026 63.0403 15.7285 62.9526 15.27C62.6245 13.6304 60.7246 12.4014 59.481 12.0518C59.4391 12.0401 59.3965 12.0312 59.3535 12.0249C57.0478 11.6803 54.8053 10.998 52.6984 10H69C69.2651 10.0003 69.5193 10.1058 69.7067 10.2933C69.8942 10.4807 69.9997 10.7349 70 11ZM49.3836 10C51.8986 12.8213 57.9845 13.8417 58.9956 13.9936C59.8662 14.2612 60.8794 15.1035 60.9917 15.6626C61.0073 15.7422 61.0371 15.8896 60.7217 16.1392C59.3687 17.2095 56.628 17.0278 54.7964 16.9053C53.0282 16.7314 51.2796 16.3955 49.5728 15.9019C48.5327 15.6362 47.457 15.3623 46.3745 15.1567C43.6006 14.6299 40.4185 14.2515 37.8369 15.436C36.5234 16.0386 35.0112 16.0308 34.0767 15.415C33.334 14.9258 32.9722 14.0659 33.0015 12.8594C33.0094 11.8649 33.2486 10.886 33.7002 10H49.3836ZM11 10H25.9692C23.5405 12.7762 17.7854 18.3437 10 19.3239V11C10.0003 10.7349 10.1058 10.4807 10.2933 10.2933C10.4807 10.1058 10.7349 10.0003 11 10ZM10 69V66.0008C16.8145 59.3197 30.6309 52.9761 30.7715 52.9121C30.8013 52.8984 30.8301 52.8833 30.8584 52.8672C31.3851 52.5637 31.7727 52.0669 31.9391 51.4823C32.1054 50.8976 32.0375 50.2712 31.7495 49.7358C31.4829 49.2458 31.0514 48.866 30.5316 48.6636C30.0117 48.4611 29.437 48.4492 28.9092 48.6299C25.1627 49.9938 16.0506 52.9368 10 51.7955V44.575C16.2953 46.8681 23.1322 47.2277 29.6333 45.6074C29.6677 45.5987 29.7016 45.5883 29.7349 45.5762C29.7959 45.5537 35.874 43.3491 40.2544 44.0596C41.1037 44.1734 41.9613 44.2123 42.8174 44.1758C43.8317 44.0982 44.8518 44.1956 45.833 44.4639C46.3011 44.6214 46.6977 44.9408 46.9513 45.3647C47.205 45.7885 47.2991 46.2889 47.2168 46.7759C46.9522 48.4326 45.0347 49.1812 44.4536 49.3711C44.4336 49.3779 44.4141 49.3848 44.3945 49.3926C43.6228 49.6997 25.5876 56.9895 16.2413 70H11C10.7349 69.9997 10.4807 69.8942 10.2933 69.7067C10.1058 69.5193 10.0003 69.2651 10 69ZM69 70H57.0041C58.6895 68.2543 60.7082 66.8646 62.9405 65.9134C65.1729 64.9622 67.5735 64.4688 70 64.4625V69C69.9997 69.2651 69.8942 69.5193 69.7067 69.7067C69.5193 69.8942 69.2651 69.9997 69 70Z" fill="#D5B471"/>
<path d="M41.322 29.0473C38.6107 26.9747 34.5945 26.735 31.738 27.2009C28.3181 27.7599 25.5884 28.7914 23.6257 30.2665C21.0008 32.239 14.9305 33.9799 14.9166 33.9843C13.0564 34.4351 11.037 35.611 11.0005 37.1278C10.9832 37.8595 11.3826 38.8519 13.3852 39.4277C14.8858 39.8321 16.4427 40.0242 18.0041 39.9976C18.5234 39.9976 19.0651 39.9813 19.6292 39.9489C21.5638 39.7889 23.4801 39.4746 25.3574 39.0094C26.3885 38.7821 27.4543 38.5478 28.4959 38.3768C30.8563 37.9904 33.8355 37.6522 35.9406 38.4878C38.066 39.3298 40.4657 39.221 42.0515 38.2112C42.7098 37.7823 43.235 37.1982 43.574 36.5183C43.913 35.8384 44.0536 35.0869 43.9817 34.3398C43.9843 33.3287 43.7471 32.3297 43.2872 31.4146C42.8273 30.4994 42.1562 29.691 41.322 29.0473ZM40.7158 36.3794C39.8086 36.9579 38.2246 36.9855 36.8664 36.447C34.2038 35.3918 30.9333 35.7273 28.086 36.1938C26.9773 36.3756 25.8773 36.6175 24.8131 36.8518C23.067 37.2876 21.2844 37.5836 19.4845 37.7366C17.6711 37.8913 15.8427 37.7468 14.0829 37.3096C13.8802 37.255 13.684 37.1816 13.497 37.0905C14.0921 36.6179 14.799 36.2844 15.5592 36.1175C15.8261 36.0417 22.1291 34.2354 25.1113 31.9939C26.7353 30.7736 29.168 29.8709 32.1467 29.3839C34.3774 29.0197 37.7267 29.162 39.8207 30.7627C40.391 31.205 40.8479 31.7612 41.1578 32.3904C41.4677 33.0195 41.6227 33.7057 41.6114 34.3982C41.6636 34.773 41.6082 35.1541 41.4508 35.5022C41.2934 35.8504 41.0397 36.1531 40.7158 36.3794Z" fill="#D5B471"/>
<path d="M53.7192 37.9946C55.4856 38.0624 57.2135 37.494 58.5539 36.4043C58.8616 36.2366 59.1807 36.0884 59.5091 35.9606C61.4794 35.1244 65.1478 33.5683 64.9954 29.6569C64.9865 29.4069 64.9232 29.1612 64.8095 28.9353C64.6958 28.7094 64.5342 28.5081 64.3346 28.3438C62.9371 27.1836 60.7329 27.7778 59.0653 27.7976C56.9518 27.7872 54.8461 27.5543 52.787 27.1031C52.1931 26.9481 51.5632 26.9683 50.9816 27.1608C50.4001 27.3534 49.8946 27.7092 49.5327 28.1808C49.1943 28.6366 49.0088 29.1782 49.0003 29.7351C48.9918 30.2919 49.1607 30.8383 49.485 31.3033C49.9128 31.9209 49.968 32.1846 49.7662 32.6457C49.0295 34.3284 49.4142 35.518 49.8674 36.22C50.6825 37.4825 52.2244 37.9826 53.7192 37.9946ZM51.8779 35.0602C51.7638 34.8119 51.7104 34.5425 51.7215 34.272C51.7327 34.0015 51.8081 33.7368 51.9423 33.4976C52.1912 32.9392 52.2773 32.3279 52.1917 31.7273C52.106 31.1267 51.8517 30.5588 51.4552 30.0826C51.3919 29.9861 51.3605 29.8741 51.3647 29.7606C51.3689 29.6472 51.4087 29.5375 51.479 29.4455C51.6845 29.1757 51.9905 29.2163 52.2965 29.2812C54.8863 29.8581 57.5479 30.0947 60.206 29.9842C60.3438 29.9757 62.6475 29.7951 62.6427 29.9717C62.5875 32.0389 60.6748 33.0251 58.5447 33.9288C57.967 34.1292 57.427 34.4159 56.9454 34.778C55.904 35.5369 54.592 35.8845 53.2851 35.748C53.0107 35.7416 52.7415 35.6764 52.4977 35.5572C52.254 35.4381 52.042 35.2681 51.8779 35.0602Z" fill="#D5B471"/>
<path d="M44.5538 63C45.2954 62.9203 46.0164 62.7136 46.6831 62.3897C49.0436 61.5239 51.7191 60.5431 53.2625 60.3753C53.767 60.3099 54.2476 60.1276 54.6635 59.844C55.0794 59.5603 55.4181 59.1836 55.6508 58.7461C55.8835 58.3086 56.0033 57.8232 55.9999 57.3313C55.9966 56.8394 55.8702 56.3555 55.6316 55.921C54.3679 53.7475 51.1274 53.6716 49.37 54.452C47.2554 55.3893 44.3914 56.8985 42.7553 58.7648C42.3961 59.1104 42.1509 59.551 42.0507 60.0312C41.9504 60.5113 41.9996 61.0094 42.1921 61.4625C42.3845 61.9156 42.7115 62.3035 43.1319 62.5771C43.5522 62.8508 44.047 62.9979 44.5538 63ZM44.5355 60.2222C45.5953 59.0125 47.6581 57.691 50.3432 56.5005C50.755 56.3313 51.1989 56.2473 51.6462 56.2539C52.4714 56.2539 53.2989 56.511 53.5986 57.0264C53.6485 57.1362 53.6723 57.2554 53.6682 57.3753C53.6641 57.4951 53.6322 57.6126 53.575 57.719C53.5177 57.8253 53.4364 57.918 53.3372 57.99C53.238 58.062 53.1233 58.1116 53.0016 58.1352C51.1667 58.3344 48.4662 59.3245 45.8551 60.2822C45.4012 60.4484 44.9536 60.613 44.5485 60.7633C44.4437 60.8019 44.349 60.6216 44.3506 60.5453C44.3517 60.494 44.4705 60.2222 44.5355 60.2222Z" fill="#D5B471"/>
<path d="M24.7206 13.1086C24.2426 12.9719 23.7398 12.9641 23.2582 13.086C22.7766 13.208 22.3316 13.4557 21.964 13.8066C20.8876 14.8516 18.5117 16.1914 16.4155 17.3738C16.0088 17.6038 15.6068 17.8301 15.218 18.0522C14.7562 18.3406 14.3953 18.7798 14.1896 19.3036C13.9838 19.8275 13.9443 20.4078 14.077 20.9574C14.2174 21.5581 14.5494 22.0891 15.0171 22.4608C15.4848 22.8324 16.0594 23.0221 16.6439 22.9976C16.7073 22.9994 16.772 23 16.8366 23C19.1912 23 21.9882 21.9122 23.9442 20.9855C25.8922 20.0612 27.554 17.436 26.8249 15.1457C26.6631 14.6472 26.3857 14.1995 26.0181 13.8437C25.6505 13.4878 25.2044 13.2351 24.7206 13.1086ZM22.9775 18.7049C20.4527 19.9013 18.2204 20.5334 16.7022 20.4998C16.513 20.4943 16.4051 20.4473 16.3849 20.4058C16.3635 20.3483 16.3631 20.2843 16.3837 20.2265C16.7552 20.0142 17.1388 19.7982 17.5276 19.5786C19.8562 18.265 22.2645 16.907 23.5618 15.6478C23.6438 15.5831 23.7386 15.5391 23.8391 15.519C23.9395 15.4988 24.043 15.5032 24.1417 15.5316C24.2404 15.5601 24.3316 15.6119 24.4085 15.6832C24.4854 15.7545 24.546 15.8433 24.5856 15.9431C24.8706 16.8375 23.9211 18.2578 22.9775 18.7049Z" fill="#D5B471"/>
</svg>
